<svg xmlns="http://www.w3.org/2000/svg" width="127" height="21" viewBox="0 0 127 21" fill="none">
  <path d="M10.9622 20.4186L13.8132 0.539268H17.3098L16.1263 8.94269L15.7229 8.36495C16.1891 7.48961 16.8256 6.85058 17.6325 6.44792C18.4394 6.02775 19.3359 5.81767 20.3221 5.81767C21.4338 5.81767 22.3752 6.07153 23.1463 6.57923C23.9352 7.08693 24.509 7.77847 24.8676 8.65382C25.2442 9.51168 25.3517 10.4833 25.1904 11.5688L23.9262 20.4186H20.4028L21.5863 11.9627C21.7297 11.0523 21.5683 10.3258 21.1021 9.78303C20.6359 9.2403 19.9725 8.96895 19.1118 8.96895C18.538 8.96895 18.0091 9.10026 17.5249 9.36286C17.0408 9.60795 16.6373 9.95811 16.3146 10.4133C15.9918 10.8685 15.7767 11.4112 15.6691 12.0415L14.4856 20.4186H10.9622ZM26.9056 20.4186L28.9496 6.1328H32.5L30.4558 20.4186H26.9056ZM29.1648 4.53089L29.7027 0.854397H33.2531L32.742 4.53089H29.1648ZM33.7348 20.4186L35.7789 6.1328H39.0871L38.7106 8.94269L38.4954 8.36495C38.9615 7.48961 39.5982 6.85058 40.4051 6.44792C41.2119 6.02775 42.1084 5.81767 43.0947 5.81767C44.2063 5.81767 45.1477 6.07153 45.9188 6.57923C46.7077 7.08693 47.2816 7.77847 47.6402 8.65382C48.0167 9.51168 48.1243 10.4833 47.9629 11.5688L46.6988 20.4186H43.1754L44.3857 11.9627C44.5113 11.0523 44.3408 10.3258 43.8747 9.78303C43.4086 9.2403 42.745 8.96895 41.8844 8.96895C41.3107 8.96895 40.7727 9.10026 40.2706 9.36286C39.7864 9.60795 39.383 9.95811 39.0602 10.4133C38.7555 10.8685 38.5492 11.4112 38.4416 12.0415L37.2582 20.4186H33.7348ZM57.0477 20.7337C55.6671 20.7337 54.4568 20.4449 53.4167 19.8671C52.3769 19.2894 51.5608 18.4929 50.9691 17.4774C50.3954 16.4446 50.1084 15.2628 50.1084 13.9322C50.1084 12.7242 50.3147 11.63 50.7271 10.6496C51.1574 9.65173 51.7402 8.79387 52.4753 8.07609C53.2284 7.3583 54.0891 6.80683 55.0574 6.42166C56.0437 6.01901 57.0837 5.81767 58.1773 5.81767C59.343 5.81767 60.3559 6.04527 61.2166 6.50045C62.0953 6.93813 62.7677 7.54213 63.2338 8.31243L62.4807 8.96895L63.6642 0.539268H67.2414L64.4173 20.4186H61.0552L61.4318 17.6612L62.2118 18.1865C61.6739 19.0268 60.9388 19.6657 60.0063 20.1035C59.0918 20.5237 58.1058 20.7337 57.0477 20.7337ZM57.5318 17.5825C58.4105 17.5825 59.1816 17.3724 59.8449 16.9522C60.5265 16.5144 61.0552 15.9368 61.4318 15.219C61.8083 14.4837 61.9966 13.6784 61.9966 12.803C61.9966 12.0677 61.8352 11.4112 61.5125 10.8335C61.2077 10.2557 60.7774 9.80055 60.2215 9.46791C59.6835 9.13526 59.0472 8.96895 58.3118 8.96895C57.4334 8.96895 56.6534 9.18778 55.9718 9.62547C55.2906 10.0456 54.7526 10.6146 54.3581 11.3324C53.9815 12.0502 53.7932 12.8555 53.7932 13.7484C53.7932 14.5012 53.9457 15.1665 54.2505 15.7442C54.5732 16.3043 55.0127 16.7508 55.5684 17.0835C56.1424 17.4162 56.7967 17.5825 57.5318 17.5825Z" fill="url(#paint0_radial_4520_4855)"/>
  <path d="M69.3875 20.4186L69.9254 16.7421H73.5026L72.9378 20.4186H69.3875Z" fill="url(#paint1_radial_4520_4855)"/>
  <path d="M84.7563 20.7337C83.3757 20.7337 82.1653 20.4449 81.1253 19.8671C80.0852 19.2894 79.2694 18.4929 78.6777 17.4774C78.104 16.4446 77.817 15.2628 77.817 13.9322C77.817 12.7242 78.0233 11.63 78.4356 10.6496C78.866 9.65173 79.4488 8.79387 80.1839 8.07609C80.937 7.3583 81.7977 6.80683 82.7659 6.42166C83.7522 6.01901 84.792 5.81767 85.8859 5.81767C87.0513 5.81767 88.0645 6.04527 88.9252 6.50045C89.8039 6.93813 90.4763 7.54213 90.9424 8.31243L90.1893 8.96895L91.3728 0.539268H94.95L92.1259 20.4186H88.7638L89.1404 17.6612L89.9204 18.1865C89.3824 19.0268 88.6474 19.6657 87.7149 20.1035C86.8004 20.5237 85.8141 20.7337 84.7563 20.7337ZM85.2404 17.5825C86.1191 17.5825 86.8899 17.3724 87.5535 16.9522C88.2348 16.5144 88.7638 15.9368 89.1404 15.219C89.5169 14.4837 89.7052 13.6784 89.7052 12.803C89.7052 12.0677 89.5438 11.4112 89.2211 10.8335C88.9163 10.2557 88.486 9.80055 87.93 9.46791C87.3921 9.13526 86.7555 8.96895 86.0204 8.96895C85.1417 8.96895 84.3617 9.18778 83.6804 9.62547C82.9991 10.0456 82.4612 10.6146 82.0666 11.3324C81.6901 12.0502 81.5018 12.8555 81.5018 13.7484C81.5018 14.5012 81.6543 15.1665 81.959 15.7442C82.2818 16.3043 82.721 16.7508 83.277 17.0835C83.8507 17.4162 84.5053 17.5825 85.2404 17.5825ZM102.937 20.7337C101.502 20.7337 100.247 20.4273 99.1711 19.8146C98.1132 19.202 97.2883 18.3703 96.6966 17.3199C96.1229 16.2518 95.8359 15.0614 95.8359 13.7484C95.8359 12.663 96.0242 11.6475 96.4008 10.7022C96.7953 9.73926 97.3421 8.89017 98.0414 8.15487C98.7588 7.41957 99.5837 6.85058 100.516 6.44792C101.448 6.02775 102.47 5.81767 103.582 5.81767C105.017 5.81767 106.236 6.10654 107.24 6.68427C108.244 7.26201 109.006 8.04108 109.526 9.02147C110.046 9.98437 110.306 11.0698 110.306 12.2778C110.306 12.5929 110.279 12.9168 110.225 13.2494C110.172 13.5821 110.1 13.9147 110.01 14.2473H98.7138L98.9021 11.6213H108.181L106.433 12.803C106.666 12.0152 106.684 11.3149 106.487 10.7022C106.308 10.0719 105.958 9.57295 105.438 9.2053C104.936 8.83765 104.308 8.65382 103.555 8.65382C102.569 8.65382 101.771 8.89017 101.161 9.36286C100.57 9.83555 100.13 10.4833 99.8435 11.3062C99.5745 12.1115 99.44 13.0131 99.44 14.011C99.44 14.7813 99.5837 15.4466 99.8704 16.0068C100.175 16.567 100.597 16.9961 101.135 17.2936C101.672 17.5738 102.3 17.7138 103.017 17.7138C103.824 17.7138 104.533 17.5386 105.142 17.1885C105.752 16.8385 106.236 16.3921 106.594 15.8493L109.392 17.2673C109.051 17.9501 108.558 18.5541 107.912 19.0793C107.285 19.6045 106.541 20.016 105.68 20.3136C104.837 20.5938 103.923 20.7337 102.937 20.7337ZM115.732 20.4186L112.048 6.1328H115.732L118.315 17.3724H116.835L122.645 6.1328H126.679L118.852 20.4186H115.732Z" fill="url(#paint2_radial_4520_4855)"/>
  <path d="M10.86 0.723106H7.36344L4.40485 20.5499H8.03585L10.86 0.723106Z" fill="url(#paint3_radial_4520_4855)"/>
  <path d="M10.3221 4.137L10.86 0.723106H0.370422V4.137H10.3221Z" fill="url(#paint4_radial_4520_4855)"/>
  <defs>
    <radialGradient id="paint0_radial_4520_4855" cx="0" cy="0" r="1" gradientUnits="userSpaceOnUse" gradientTransform="translate(38.2331 3.26997) rotate(89.6143) scale(36.8653 50.0554)">
      <stop stop-color="white"/>
      <stop offset="1" stop-color="white" stop-opacity="0.43"/>
    </radialGradient>
    <radialGradient id="paint1_radial_4520_4855" cx="0" cy="0" r="1" gradientUnits="userSpaceOnUse" gradientTransform="translate(71.3815 17.2393) rotate(89.8451) scale(6.71136 3.66012)">
      <stop stop-color="white"/>
      <stop offset="1" stop-color="white" stop-opacity="0.43"/>
    </radialGradient>
    <radialGradient id="paint2_radial_4520_4855" cx="0" cy="0" r="1" gradientUnits="userSpaceOnUse" gradientTransform="translate(101.494 3.26997) rotate(89.6651) scale(36.8651 43.459)">
      <stop stop-color="white"/>
      <stop offset="1" stop-color="white" stop-opacity="0.43"/>
    </radialGradient>
    <radialGradient id="paint3_radial_4520_4855" cx="0" cy="0" r="1" gradientUnits="userSpaceOnUse" gradientTransform="translate(7.53277 3.40409) rotate(89.9549) scale(36.1933 5.74139)">
      <stop stop-color="white"/>
      <stop offset="1" stop-color="white" stop-opacity="0.43"/>
    </radialGradient>
    <radialGradient id="paint4_radial_4520_4855" cx="0" cy="0" r="1" gradientUnits="userSpaceOnUse" gradientTransform="translate(5.45329 1.18473) rotate(89.5747) scale(6.23213 9.3295)">
      <stop stop-color="white"/>
      <stop offset="1" stop-color="white" stop-opacity="0.43"/>
    </radialGradient>
  </defs>
</svg>